<svg xmlns="http://www.w3.org/2000/svg" xmlns:xlink="http://www.w3.org/1999/xlink" width="360" height="225" viewBox="0 0 360 225">
  <defs>
    <clipPath id="clip-logo">
      <rect width="360" height="225"/>
    </clipPath>
  </defs>
  <g id="logo" clip-path="url(#clip-logo)">
    <g id="Logo-2" data-name="Logo" transform="translate(-7.949 -3.394)">
      <g id="Group_1" data-name="Group 1" transform="translate(7.949 3.394)">
        <path id="Path_1" data-name="Path 1" d="M258.112,50.984q5.241-1.346,5.431-5.827.143-3.119-2.866-6.049-6.128-5.922-12.936-7.046-6.429-1.061-8.234-5.811,0-.032-.57-3.5a4.806,4.806,0,0,0-2.486-3.673,2.225,2.225,0,0,1-1.124-2.407q1.124-5.415-.9-8.186-1.773-2.423-6.587-2.106a30.948,30.948,0,0,0-15.913,5.574,7.752,7.752,0,0,1-4.243,1.663,6.99,6.99,0,0,1-4.576-1.71,12.786,12.786,0,0,0-3.262-2.343,8.683,8.683,0,0,0-4.259.238,1.322,1.322,0,0,1-1.552-.7q-2.565-5.289-6.318-5.684-3.04-.317-6.254,3.262a29.812,29.812,0,0,0-7.2,14.963q-1.029,5.732-6.872,5.922-3.974.127-6.239,4.117a1.283,1.283,0,0,1-1.6.554q-10.625-4.354-10.371,6.951.206,9.041,6.524,17.275a2.2,2.2,0,0,1,.507,1.409q-.111,3.214-2.977,7.141-1.9,2.613-1.124,7.347a.894.894,0,0,1-.6,1q-6.919,2.2-5.162,7.759a12.342,12.342,0,0,0,4.766,6.017,29.5,29.5,0,0,0,11.068,5q4.338.95,5.415,1.742a7.227,7.227,0,0,1,2.85,5.494,8.933,8.933,0,0,0,3.863,6.634,1.346,1.346,0,0,1,.491,1.5q-1.726,5.431.38,8.3,1.773,2.407,6.539,2.169a29.85,29.85,0,0,0,15.818-5.479,7.453,7.453,0,0,1,6.254-1.346,21.446,21.446,0,0,1,4.022,2.755,5.237,5.237,0,0,0,5.241.855A2.359,2.359,0,0,1,215.963,116q2.628,5.637,6.888,5.1,2.977-.364,5.922-3.958a28.342,28.342,0,0,0,5.906-12.335,17.551,17.551,0,0,1,1.868-5.637,6.313,6.313,0,0,1,5.748-2.882,6.172,6.172,0,0,0,6.112-3.309,1.567,1.567,0,0,1,1.773-.744q10.118,2.676,10.53-5.843.364-7.6-5.51-16.309-3.594-5.3.855-10.7,2.264-2.739,1.441-7.442a.831.831,0,0,1,.618-.95" transform="translate(72.579 -3.394)" fill="none" stroke="#fdeb88" stroke-width="2"/>
        <path id="Path_2" data-name="Path 2" d="M84.3,75.826a8.756,8.756,0,1,0-8.756,8.756A8.756,8.756,0,0,0,84.3,75.826" transform="translate(26.378 34.182)" fill="none" stroke="#c2cccc" stroke-width="2"/>
        <path id="Path_3" data-name="Path 3" d="M101.244,75.842a8.772,8.772,0,1,0-8.772,8.772,8.772,8.772,0,0,0,8.772-8.772" transform="translate(36.243 34.182)" fill="none" stroke="#c2cccc" stroke-width="2"/>
        <path id="Path_4" data-name="Path 4" d="M211.093,175.358a5.052,5.052,0,0,1-2.074,1.694,1.946,1.946,0,0,0-1.035,1.206,2.013,2.013,0,0,0,.2,1.6l5.51,9.389a1.364,1.364,0,0,0,.87.647,1.3,1.3,0,0,0,1.046-.2q13.142-9.31,13.11-25.287a2.328,2.328,0,0,1,.491-1.425q7.711-9.627,7.711-24.416v-28.8q0-11.226,2.359-15.628,4.339-8.123,15.549-8.5a.807.807,0,0,0,.792-.808l-.19-16.214a.784.784,0,0,0-.234-.56.752.752,0,0,0-.558-.216Q230.2,68.7,221.654,89.38a37.35,37.35,0,0,0-2.328,13.237q-.38,15.739-.285,31.478.048,10.8-2.217,14.868-4.228,7.584-15.422,8.265a.966.966,0,0,0-.9.966v16.388a.886.886,0,0,0,.3.668.953.953,0,0,0,.713.235l9.184-.776q.9-.063.4.649" transform="translate(104.382 35.075)" fill="none" stroke="#c2cccc" stroke-width="2"/>
        <path id="Path_5" data-name="Path 5" d="M129.142,121.58q.016-2.233,1.457-.507l42.292,50.811q.523.618.523-.206l.364-79.977a1.172,1.172,0,0,0-1.172-1.172H156.8a.823.823,0,0,0-.823.823v29.989q0,3.024-1.932.7l-42.2-51q-.507-.618-.507.19l-.1,80.515a1.355,1.355,0,0,0,.447,1,1.517,1.517,0,0,0,1.073.391l15.47-.443a.833.833,0,0,0,.823-.808l.079-30.306" transform="translate(52.315 36.791)" fill="none" stroke="#c2cccc" stroke-width="2"/>
        <path id="Path_6" data-name="Path 6" d="M38.795,152.426l.364,16.214a.879.879,0,0,0,.839.855,32.488,32.488,0,0,0,23.545-7.98,32.179,32.179,0,0,0,11.97-25.429q.206-28.5.206-57.762a.816.816,0,0,0-.808-.823l-16.119.079a.831.831,0,0,0-.823.808L57.906,86.7a.691.691,0,0,1-.312.572.655.655,0,0,1-.638.045Q43.513,81.126,30.91,85.575A35.431,35.431,0,0,0,15.345,96.326,30.516,30.516,0,0,0,8.03,114.71q-1.33,22.579,19.3,33.742a29.882,29.882,0,0,0,10.688,3.088.9.9,0,0,1,.776.887" transform="translate(-7.949 40.716)" fill="none" stroke="#c2cccc" stroke-width="2"/>
        <path id="Path_7" data-name="Path 7" d="M178.394,127.493l47.3-.586a.919.919,0,0,0,.918-.776,54.84,54.84,0,0,0-.016-14.947q-2.138-14.25-12.208-22.2a34.186,34.186,0,0,0-22.326-7.474q-14.472.19-25.049,12.414-7.711,8.9-7.711,17.655,0,6.334-.127,12.667a31.253,31.253,0,0,0,5.922,19.191q10.419,14.63,29.673,14.868a.926.926,0,0,0,.671-.273.958.958,0,0,0,.279-.677V141.411a.855.855,0,0,0-.807-.855q-13.554-.839-17.085-12.287a.6.6,0,0,1,.57-.776" transform="translate(80.269 43.054)" fill="none" stroke="#c2cccc" stroke-width="2"/>
        <path id="Path_8" data-name="Path 8" d="M87.584,129.055a15.133,15.133,0,0,1-7.426-6.175q-2.359-3.784-2.565-12.4-.3-13.253-.523-26.506a.784.784,0,0,0-.792-.776l-15.85.079a.831.831,0,0,0-.839.808q-.428,15.343.269,29.7.475,9.643,3.183,15.3a32.988,32.988,0,0,0,13.427,14.567,34.326,34.326,0,0,0,18.351,4.623q15.961-.333,26.173-13.839,7.616-10.054,6.239-23.846-.523-5.146.269-26.427a.784.784,0,0,0-.211-.569.752.752,0,0,0-.549-.238l-16.151-.079a1.061,1.061,0,0,0-1.061,1.108q.507,12.936.127,26.015-.238,7.98-2.407,11.844a14.97,14.97,0,0,1-10.5,7.569,15.561,15.561,0,0,1-9.168-.76" transform="translate(22.083 44.042)" fill="none" stroke="#c2cccc" stroke-width="2"/>
        <path id="Path_9" data-name="Path 9" d="M168.666,25.892q-12.984,8.661-2.407,20.442.665.744.823-.079a1.191,1.191,0,0,0-.158-.776q-4.133-7.838,2.2-13.49a1.108,1.108,0,0,1,1.805.538,22.405,22.405,0,0,0,6.619,10.751,3.074,3.074,0,0,0,1.3.728q2.929.744.649-2.043-13.76-16.8-.19-33.805,1.077-1.346-.317-1.742a1.4,1.4,0,0,0-1.346.412,26.82,26.82,0,0,0-8.281,17.861,1.608,1.608,0,0,1-.7,1.2" transform="translate(81.637 -1.656)" fill="none" stroke="#fdeb79" stroke-width="2"/>
        <path id="Path_10" data-name="Path 10" d="M176.713,29.622q-1.837-.253-1.789-2.343a10.966,10.966,0,0,1,5.431-9.516q.095-.063,2.5-1.124,2.977-1.314,1.219-4.212-1.837-3.008-4.687-.934-9.437,6.888-5.8,16.816a3.735,3.735,0,0,0,1.71,2.217,2.885,2.885,0,0,0,3.183-.38,2.254,2.254,0,0,0,.792-1.251q2.407-8.693,11.258-8.281a1.013,1.013,0,0,1,.855,1.441,31.157,31.157,0,0,0-3.072,12,2.475,2.475,0,0,0,.4,1.568q1.14,1.663,1.979.111a4.54,4.54,0,0,0,.443-1.758q1.9-18.478,19.729-22.579a11.583,11.583,0,0,1,2.359-.253q5.241-.143,1.061-2.771a2.227,2.227,0,0,0-1.457-.317A27.6,27.6,0,0,0,196.7,15.245a1.655,1.655,0,0,1-1.378.412q-15.881-2.692-17.734,13.221a.886.886,0,0,1-.3.57.724.724,0,0,1-.573.174" transform="translate(88.094 -0.683)" fill="none" stroke="#fdeb79" stroke-width="2"/>
        <path id="Path_11" data-name="Path 11" d="M204.974,15.074q-11.068-2.613-15.2,9.263-.9,2.581.839.475,5.558-6.761,12.794-4.924a8.687,8.687,0,0,0,3.151.348q4.766-.649,1.425-3.642a6.675,6.675,0,0,0-3.008-1.52" transform="translate(97.945 3.145)" fill="none" stroke="#fdeb79" stroke-width="2"/>
        <path id="Path_12" data-name="Path 12" d="M205.3,24.5q3.5,2.375-.459,3.879a26.275,26.275,0,0,0-9.057,5.684,3.517,3.517,0,0,0-.887,1.283q-.95,2.3,1.346,1.393a6.459,6.459,0,0,0,1.425-.855q16.325-12.255,32.475.3a2.091,2.091,0,0,0,1.156.507q1.251.1,1.14-.95a2.3,2.3,0,0,0-.713-1.267,24.339,24.339,0,0,0-16.436-7.632,4.465,4.465,0,0,1-3.594-2.169q-2.644-4.465-6.9-5.209a15.03,15.03,0,0,0-12.54,3.151,1.32,1.32,0,0,0-.523.808q-.095.728.665.38,7.141-3.23,12.9.7" transform="translate(99.262 5.829)" fill="none" stroke="#fdeb79" stroke-width="2"/>
        <path id="Path_13" data-name="Path 13" d="M167.159,39.747q-6.65-4.038-4.323-14.219a3.65,3.65,0,0,0-.713-3.072q-1.963-2.423-3.436,1.583-4.75,12.984,7.885,17.069a1.83,1.83,0,0,0,.982.047q2.359-.586.443-1.077a2.959,2.959,0,0,1-.839-.333" transform="translate(79.233 7.195)" fill="none" stroke="#fdeb79" stroke-width="2"/>
        <path id="Path_14" data-name="Path 14" d="M172.2,63.314a4.555,4.555,0,0,1-4.592,1.029,13.6,13.6,0,0,1-8.9-7.885,2.458,2.458,0,0,0-.982-1.172q-2.248-1.267-3.388,1.124a4.292,4.292,0,0,0,.649,4.956q6.492,7.743,15.565,4.576a5.688,5.688,0,0,0,2.375-1.425,2.016,2.016,0,0,0-.016-3.135,10.584,10.584,0,0,0-2.929-1.552q-6.492-2.708-7.125-10.165a1.256,1.256,0,0,1,.531-1.149,1.293,1.293,0,0,1,1.274-.118,28.7,28.7,0,0,0,12.984,2.486q3.325-.1.6-2.011a5.551,5.551,0,0,0-2.771-.855,21.647,21.647,0,0,1-2.834-.317q-15.549-3.753-18.7-19.571Q153.911,28,153.8,26.1a1.924,1.924,0,0,0-1.916-2.043.729.729,0,0,0-.581.206.861.861,0,0,0-.258.6q-.3,9.31,6.682,17.75a2.8,2.8,0,0,1,.57,2.423q-2.565,11.036,7.759,15.644a12.171,12.171,0,0,0,3.008.649,7.643,7.643,0,0,1,3.024,1,.628.628,0,0,1,.307.469.592.592,0,0,1-.2.513" transform="translate(75.524 8.661)" fill="none" stroke="#fdeb79" stroke-width="2"/>
        <path id="Path_15" data-name="Path 15" d="M209.931,47.7a19.571,19.571,0,1,0-19.571,19.571A19.571,19.571,0,0,0,209.931,47.7" transform="translate(87.05 11.223)" fill="none" stroke="#fdeb79" stroke-width="2"/>
        <path id="Path_16" data-name="Path 16" d="M210.041,33.715a12.183,12.183,0,0,1,4.608,5.019,7.661,7.661,0,0,0,2.011,2.613q2.818,1.932,3.642-2.2a2.477,2.477,0,0,0-.206-1.5q-4.861-10.4-16.7-6.824-1.9.57-1.758,2.043a.572.572,0,0,0,.321.445.782.782,0,0,0,.613.03,8.722,8.722,0,0,1,7.474.38" transform="translate(105.038 12.244)" fill="none" stroke="#fdeb79" stroke-width="2"/>
        <path id="Path_17" data-name="Path 17" d="M211.319,46.458a33.064,33.064,0,0,0-11.068-2.818,3.043,3.043,0,0,0-1.694.285q-1.552.855-.3,2.027a2.289,2.289,0,0,0,1.393.554q20.3,1.853,23.212,22.136.443,3.1,2.391,1.916a1.34,1.34,0,0,0,.6-1.251A28.285,28.285,0,0,0,218.6,51.573a1.568,1.568,0,0,1-.38-1.346Q220.9,35.612,205.7,33.284q-2.6-.4-.618.887a4.314,4.314,0,0,0,.7.333q6.444,2.328,8.028,9.975.7,3.436-2.486,1.979" transform="translate(102.747 14.212)" fill="none" stroke="#fdeb79" stroke-width="2"/>
        <path id="Path_18" data-name="Path 18" d="M208.324,49.1a8.826,8.826,0,0,0-6.1-2.043q-.95.048-.127.538,8.629,5.051,5.668,13.728-1.694,4.94,2.818,4.481a1.489,1.489,0,0,0,1.14-.808q4.8-9.469-3.4-15.9" transform="translate(105.093 22.365)" fill="none" stroke="#fdeb79" stroke-width="2"/>
        <path id="Path_19" data-name="Path 19" d="M206.951,49.337q-.855-.871-.887.158a1.154,1.154,0,0,0,.174.633q4.687,8.36-2.09,13.791a1.193,1.193,0,0,1-1.092.211,1.229,1.229,0,0,1-.808-.781,23.331,23.331,0,0,0-7.141-10.941A1.644,1.644,0,0,0,193.7,52q-1.378.332-.047,1.963,13.7,16.8.633,33.647A1.74,1.74,0,0,0,193.872,89q.364,1.742,2.169-.111a26.619,26.619,0,0,0,7.6-16.879,1.949,1.949,0,0,1,.649-1.33q1.52-1.362,3.04-2.708a10.841,10.841,0,0,0,2.882-3.768q3.436-8.044-3.262-14.868" transform="translate(100.006 23.521)" fill="none" stroke="#fdeb79" stroke-width="2"/>
        <path id="Path_20" data-name="Path 20" d="M163.724,57.612q-5.574-.823-11.844-5.653a4.779,4.779,0,0,0-1.33-.776q-1.742-.57-1.488,1.045a2.593,2.593,0,0,0,.807,1.425,24.135,24.135,0,0,0,15.517,6.84,4.362,4.362,0,0,1,3.1,1.647q9.579,12.3,20.473,2.692,1-.871.238-1.108a1.621,1.621,0,0,0-1.172.237Q180.714,68,174.855,61.6a1.235,1.235,0,0,1,.538-2.011,21.729,21.729,0,0,0,10.466-6.935q1.552-1.837.016-2.264a1.554,1.554,0,0,0-1.362.428q-9.326,8.471-20.79,6.793" transform="translate(74.355 24.323)" fill="none" stroke="#fdeb79" stroke-width="2"/>
        <path id="Path_21" data-name="Path 21" d="M192.412,71.069a1.546,1.546,0,0,1-1.26-.739,1.51,1.51,0,0,1-.07-1.446,25.178,25.178,0,0,0,2.47-12.9.943.943,0,0,0-.289-.613.713.713,0,0,0-.582-.195q-1.473.206-1.678,2.5-1.868,20.141-22.167,22.484a3.9,3.9,0,0,0-1.52.428q-1.393.823-.19,1.868a2.017,2.017,0,0,0,1.409.443,29.3,29.3,0,0,0,16.784-6.4,3.713,3.713,0,0,1,2.518-.728q14.6,1.283,16.166-11.606a4.237,4.237,0,0,1,.269-1.077q1.188-3.214-.95-.95a2.118,2.118,0,0,0-.475.887q-2.375,8.376-10.435,8.044" transform="translate(84.587 27.176)" fill="none" stroke="#fdeb79" stroke-width="2"/>
        <path id="Path_22" data-name="Path 22" d="M171.011,66.061a4.639,4.639,0,0,1-2.2-.95q-1.932-1.5-4.038,1.583a1.916,1.916,0,0,0,.982,2.9q13.7,4.513,17.94-8.123a1.878,1.878,0,0,0,.079-.871q-.57-3.816-1.251.158a2.2,2.2,0,0,1-.317.871q-3.5,5.637-11.195,4.433" transform="translate(83.346 29.251)" fill="none" stroke="#fdeb79" stroke-width="2"/>
        <path id="Path_23" data-name="Path 23" d="M192.942,69.749q-1.061,1.235-5.621,3.594a1.989,1.989,0,0,0-1.029,1.093,2.49,2.49,0,0,0,.333,2.3,2.593,2.593,0,0,0,2.343.982,8.143,8.143,0,0,0,6.745-4.006q4.813-7.268.333-14.425a1.093,1.093,0,0,0-.649-.523q-.76-.174-.443.76a9.862,9.862,0,0,1-2.011,10.229" transform="translate(96.012 29.265)" fill="none" stroke="#fdeb79" stroke-width="2"/>
        <path id="Path_24" data-name="Path 24" d="M181.3,33.793q-5.954-.808-8.693,3.943-.412.713.253.238a17.149,17.149,0,0,1,7.189-3.056" transform="translate(88.019 14.464)" fill="none" stroke="#f3eda6" stroke-width="2"/>
        <path id="Path_25" data-name="Path 25" d="M180.126,34.46q2.787,1.694,1.758,3.753a5.223,5.223,0,0,1-2.676,1.932,12.808,12.808,0,0,0-5.748,4.734,4.227,4.227,0,0,0-.633,1.568q-1.758,8.883,2.6-1.615a1.955,1.955,0,0,1,1.916-1.2q2.533.143,2.771,2.011a6.744,6.744,0,0,1-.76,2.755A8.259,8.259,0,0,0,179,53.92" transform="translate(87.943 14.941)" fill="none" stroke="#feec72" stroke-width="2"/>
        <path id="Path_26" data-name="Path 26" d="M176.54,46.9a8.667,8.667,0,0,0,3.911,7.394q.681.459.206-.222A17.231,17.231,0,0,1,177.6,46.5" transform="translate(90.404 22.031)" fill="none" stroke="#f3eda6" stroke-width="2"/>
        <path id="Path_27" data-name="Path 27" d="M177.21,53.355q1.156-3.167,3.183-2.011a5.252,5.252,0,0,1,1.726,2.264,14.7,14.7,0,0,0,7.569,7.094q1.583.681,2.217-.19a.488.488,0,0,0,.022-.52.71.71,0,0,0-.482-.351,12.392,12.392,0,0,1-3.008-1.045,3.828,3.828,0,0,1-2.058-2.217q-.792-2.28,1.71-2.85a5.089,5.089,0,0,1,2.787.412,11.981,11.981,0,0,0,7.9.174q1.124-.348-.032-.554-6.365-1.045-4.18-3.879a11.468,11.468,0,0,1,3.2-2.185A10.891,10.891,0,0,0,203.3,40.26q.522-2.09-.222-2.328a.5.5,0,0,0-.529.172,1.2,1.2,0,0,0-.294.7A8.558,8.558,0,0,1,199.916,44a1.545,1.545,0,0,1-1.362.475,2.783,2.783,0,0,1-2.6-2.9,2.675,2.675,0,0,1,.459-1.441,6.619,6.619,0,0,0,.713-5.384" transform="translate(90.795 15.119)" fill="none" stroke="#feec72" stroke-width="2"/>
        <path id="Path_28" data-name="Path 28" d="M191.1,37.24a7.026,7.026,0,0,0-2.312-6.429,1.182,1.182,0,0,0-.523-.269q-1.093-.238-.523.475a9.444,9.444,0,0,1,2.106,6.951" transform="translate(96.826 12.583)" fill="none" stroke="#f3eda6" stroke-width="2"/>
        <path id="Path_29" data-name="Path 29" d="M195.394,38.115q-3.578,2.723-5.146-1.916-2.027-5.985-8.629-5.969a3.418,3.418,0,0,0-1.71.333q-.792.491,3.325.507a2.486,2.486,0,0,1,1.963.966q2.755,3.515.364,4.56a5.49,5.49,0,0,1-3.309-.016q-2.09-.475-4.212-.776" transform="translate(91.28 12.435)" fill="none" stroke="#feec72" stroke-width="2"/>
        <path id="Path_30" data-name="Path 30" d="M189,35.478q1.3.412,1.251-.728" transform="translate(97.673 15.094)" fill="none" stroke="#f2d936" stroke-width="2"/>
        <path id="Path_31" data-name="Path 31" d="M177.6,46.5a1.48,1.48,0,0,0-1.061.4" transform="translate(90.404 22.021)" fill="none" stroke="#f2d936" stroke-width="2"/>
        <path id="Path_32" data-name="Path 32" d="M177.25,34.874A1.567,1.567,0,0,1,178.5,33.75" transform="translate(90.819 14.505)" fill="none" stroke="#f2d936" stroke-width="2"/>
        <path id="Path_33" data-name="Path 33" d="M50.921,108.7a15.771,15.771,0,1,0-15.771,15.771A15.771,15.771,0,0,0,50.921,108.7" transform="translate(-1.281 49.486)" fill="none" stroke="#c2cccc" stroke-width="2"/>
        <path id="Path_34" data-name="Path 34" d="M194.872,96.1q-12.746-8.123-22.753,4.56-1.188,1.488.713,1.488h25.746a.839.839,0,0,0,.728-1.251,13.274,13.274,0,0,0-4.434-4.8" transform="translate(87.558 49.418)" fill="none" stroke="#c2cccc" stroke-width="2"/>
      </g>
      <path id="Path_36" data-name="Path 36" d="M257.495,51.934q.823,4.7-1.441,7.442-4.449,5.4-.855,10.7,5.874,8.709,5.51,16.309-.412,8.519-10.53,5.843a1.568,1.568,0,0,0-1.773.744,6.172,6.172,0,0,1-6.112,3.309,6.313,6.313,0,0,0-5.748,2.882,17.551,17.551,0,0,0-1.868,5.637,28.342,28.342,0,0,1-5.906,12.335q-2.945,3.594-5.922,3.958-4.259.538-6.888-5.1a2.359,2.359,0,0,0-2.913-1.235,5.237,5.237,0,0,1-5.241-.855,21.446,21.446,0,0,0-4.022-2.755,7.453,7.453,0,0,0-6.254,1.346,29.85,29.85,0,0,1-15.818,5.479q-4.766.238-6.539-2.169-2.106-2.866-.38-8.3a1.346,1.346,0,0,0-.491-1.5,8.933,8.933,0,0,1-3.863-6.634,7.227,7.227,0,0,0-2.85-5.494q-1.077-.792-5.415-1.742a29.5,29.5,0,0,1-11.068-5,12.342,12.342,0,0,1-4.766-6.017q-1.758-5.558,5.162-7.759a.9.9,0,0,0,.6-1q-.776-4.734,1.124-7.347,2.866-3.927,2.977-7.141a2.2,2.2,0,0,0-.507-1.409q-6.318-8.234-6.524-17.275-.253-11.305,10.371-6.951a1.283,1.283,0,0,0,1.6-.554q2.264-3.99,6.239-4.117,5.843-.19,6.872-5.922a29.812,29.812,0,0,1,7.2-14.963q3.214-3.578,6.254-3.262,3.753.4,6.318,5.684a1.322,1.322,0,0,0,1.552.7,8.683,8.683,0,0,1,4.259-.238,12.786,12.786,0,0,1,3.262,2.343,6.99,6.99,0,0,0,4.576,1.71,7.752,7.752,0,0,0,4.243-1.663A30.948,30.948,0,0,1,227.838,6.38q4.814-.317,6.587,2.106,2.027,2.771.9,8.186a2.225,2.225,0,0,0,1.124,2.407,4.806,4.806,0,0,1,2.486,3.673q.57,3.468.57,3.5,1.805,4.75,8.234,5.811,6.809,1.124,12.936,7.046,3.008,2.929,2.866,6.049-.19,4.481-5.431,5.827A.831.831,0,0,0,257.495,51.934Zm-79.771-24.3q-12.984,8.661-2.407,20.442.665.744.823-.079a1.191,1.191,0,0,0-.158-.776q-4.133-7.838,2.2-13.49a1.108,1.108,0,0,1,1.805.538,22.406,22.406,0,0,0,6.619,10.751,3.074,3.074,0,0,0,1.3.728q2.929.744.649-2.043-13.76-16.8-.19-33.805,1.077-1.346-.317-1.742a1.4,1.4,0,0,0-1.346.412,26.82,26.82,0,0,0-8.281,17.861,1.608,1.608,0,0,1-.7,1.2Zm14.5,4.7q-1.837-.253-1.789-2.343a10.966,10.966,0,0,1,5.431-9.516q.095-.063,2.5-1.124,2.977-1.314,1.219-4.212-1.837-3.008-4.687-.934-9.437,6.888-5.8,16.816a3.735,3.735,0,0,0,1.71,2.217,2.885,2.885,0,0,0,3.183-.38,2.254,2.254,0,0,0,.792-1.251q2.407-8.693,11.258-8.281a1.013,1.013,0,0,1,.855,1.441,31.157,31.157,0,0,0-3.072,12,2.475,2.475,0,0,0,.4,1.568q1.14,1.663,1.979.111a4.54,4.54,0,0,0,.443-1.758q1.9-18.478,19.729-22.579a11.583,11.583,0,0,1,2.359-.253q5.241-.143,1.061-2.771a2.227,2.227,0,0,0-1.457-.317,27.6,27.6,0,0,0-16.135,7.189,1.655,1.655,0,0,1-1.378.412Q194.951,15.675,193.1,31.588a.886.886,0,0,1-.3.57.724.724,0,0,1-.573.174Zm38.112-10.72q-11.068-2.613-15.2,9.263-.9,2.581.839.475,5.558-6.761,12.794-4.924a8.687,8.687,0,0,0,3.151.348q4.766-.649,1.425-3.642A6.675,6.675,0,0,0,230.34,21.613Zm1.647,12.113q3.5,2.375-.459,3.879a26.275,26.275,0,0,0-9.057,5.684,3.517,3.517,0,0,0-.887,1.283q-.95,2.3,1.346,1.393a6.459,6.459,0,0,0,1.425-.855q16.325-12.255,32.475.3a2.091,2.091,0,0,0,1.156.507q1.251.095,1.14-.95a2.3,2.3,0,0,0-.713-1.267,24.339,24.339,0,0,0-16.436-7.632,4.465,4.465,0,0,1-3.594-2.169q-2.644-4.465-6.9-5.209a15.03,15.03,0,0,0-12.54,3.151,1.32,1.32,0,0,0-.523.808q-.095.728.665.38Q226.223,29.8,231.987,33.725Zm-58.174,16.61q-6.65-4.038-4.323-14.219a3.65,3.65,0,0,0-.713-3.072q-1.963-2.423-3.436,1.583-4.75,12.984,7.885,17.069a1.83,1.83,0,0,0,.982.047q2.359-.586.443-1.077A2.959,2.959,0,0,1,173.813,50.335Zm1.33,25.033a4.555,4.555,0,0,1-4.592,1.029,13.6,13.6,0,0,1-8.9-7.885,2.458,2.458,0,0,0-.982-1.172q-2.248-1.267-3.388,1.124a4.292,4.292,0,0,0,.649,4.956Q164.423,81.164,173.5,78a5.688,5.688,0,0,0,2.375-1.425,2.016,2.016,0,0,0-.016-3.135,10.584,10.584,0,0,0-2.929-1.552q-6.492-2.708-7.125-10.165a1.256,1.256,0,0,1,.531-1.149,1.293,1.293,0,0,1,1.274-.118,28.7,28.7,0,0,0,12.984,2.486q3.325-.1.6-2.011a5.551,5.551,0,0,0-2.771-.855,21.647,21.647,0,0,1-2.834-.317Q160.037,56,156.886,40.186q-.032-.127-.143-2.027a1.924,1.924,0,0,0-1.916-2.043.729.729,0,0,0-.581.206.861.861,0,0,0-.258.6q-.3,9.31,6.682,17.75a2.8,2.8,0,0,1,.57,2.423Q158.676,68.132,169,72.74a12.171,12.171,0,0,0,3.008.649,7.643,7.643,0,0,1,3.024,1,.628.628,0,0,1,.307.469.592.592,0,0,1-.2.513ZM224.4,62.131A19.571,19.571,0,1,0,204.831,81.7,19.571,19.571,0,0,0,224.4,62.131Zm18.1-12.952a12.183,12.183,0,0,1,4.608,5.019,7.661,7.661,0,0,0,2.011,2.613q2.818,1.932,3.642-2.2a2.478,2.478,0,0,0-.206-1.5q-4.861-10.4-16.7-6.824-1.9.57-1.758,2.043a.572.572,0,0,0,.321.445.782.782,0,0,0,.613.03A8.722,8.722,0,0,1,242.5,49.179Zm-1.013,14.662a33.064,33.064,0,0,0-11.068-2.818,3.043,3.043,0,0,0-1.694.285q-1.552.855-.3,2.027a2.289,2.289,0,0,0,1.393.554q20.3,1.853,23.212,22.136.443,3.1,2.391,1.916a1.34,1.34,0,0,0,.6-1.251,28.285,28.285,0,0,0-7.252-17.734,1.568,1.568,0,0,1-.38-1.346Q251.066,53,235.866,50.668q-2.6-.4-.618.887a4.314,4.314,0,0,0,.7.333q6.444,2.328,8.028,9.975Q244.669,65.3,241.487,63.841Zm-.649,10.72a8.826,8.826,0,0,0-6.1-2.043q-.95.048-.127.538,8.629,5.051,5.668,13.728-1.694,4.94,2.818,4.481a1.489,1.489,0,0,0,1.14-.808Q249.04,80.99,240.838,74.561Zm-6.46,1.346q-.855-.871-.887.158a1.154,1.154,0,0,0,.174.633q4.687,8.36-2.09,13.791a1.193,1.193,0,0,1-1.092.211,1.23,1.23,0,0,1-.808-.781,23.331,23.331,0,0,0-7.141-10.941,1.644,1.644,0,0,0-1.409-.412q-1.378.332-.047,1.963,13.7,16.8.633,33.647a1.74,1.74,0,0,0-.412,1.393q.364,1.742,2.169-.111a26.619,26.619,0,0,0,7.6-16.879,1.949,1.949,0,0,1,.649-1.33q1.52-1.362,3.04-2.708a10.841,10.841,0,0,0,2.882-3.768Q241.075,82.731,234.377,75.907Zm-68.877,9.1q-5.574-.823-11.844-5.653a4.779,4.779,0,0,0-1.33-.776q-1.742-.57-1.488,1.045a2.594,2.594,0,0,0,.808,1.425,24.135,24.135,0,0,0,15.517,6.84,4.362,4.362,0,0,1,3.1,1.647q9.579,12.3,20.473,2.692,1-.871.238-1.108a1.621,1.621,0,0,0-1.172.238Q182.49,95.4,176.631,89a1.235,1.235,0,0,1,.538-2.011,21.729,21.729,0,0,0,10.466-6.935q1.552-1.837.016-2.264a1.554,1.554,0,0,0-1.362.428Q176.964,86.69,165.5,85.011Zm38.92,16.261a1.546,1.546,0,0,1-1.26-.739,1.51,1.51,0,0,1-.07-1.446,25.178,25.178,0,0,0,2.47-12.9.943.943,0,0,0-.289-.613.713.713,0,0,0-.582-.195q-1.473.206-1.678,2.5-1.868,20.141-22.167,22.484a3.9,3.9,0,0,0-1.52.428q-1.393.823-.19,1.868a2.017,2.017,0,0,0,1.409.443,29.3,29.3,0,0,0,16.784-6.4,3.713,3.713,0,0,1,2.518-.728q14.6,1.283,16.166-11.606a4.237,4.237,0,0,1,.269-1.077q1.188-3.214-.95-.95a2.117,2.117,0,0,0-.475.887Q212.479,101.605,204.42,101.273Zm-22.642-2.929a4.639,4.639,0,0,1-2.2-.95q-1.932-1.5-4.038,1.583a1.916,1.916,0,0,0,.982,2.9q13.7,4.513,17.94-8.123a1.877,1.877,0,0,0,.079-.871q-.57-3.816-1.251.158a2.2,2.2,0,0,1-.317.871Q189.473,99.547,181.777,98.343Zm34.6,3.689q-1.061,1.235-5.621,3.594a1.989,1.989,0,0,0-1.029,1.093,2.49,2.49,0,0,0,.333,2.3A2.593,2.593,0,0,0,212.4,110a8.143,8.143,0,0,0,6.745-4.006q4.813-7.268.333-14.425a1.093,1.093,0,0,0-.649-.523q-.76-.174-.443.76A9.862,9.862,0,0,1,216.374,102.033Z" transform="translate(80.528 0)" fill="#fad711"/>
      <path id="Path_37" data-name="Path 37" d="M169.363,24.689a26.82,26.82,0,0,1,8.281-17.861,1.4,1.4,0,0,1,1.346-.412q1.393.4.317,1.742-13.57,17.006.19,33.805,2.28,2.787-.649,2.043a3.074,3.074,0,0,1-1.3-.728,22.405,22.405,0,0,1-6.619-10.751,1.108,1.108,0,0,0-1.805-.538q-6.334,5.653-2.2,13.49a1.191,1.191,0,0,1,.158.776q-.158.823-.823.079-10.577-11.78,2.407-20.442a1.607,1.607,0,0,0,.7-1.2Z" transform="translate(89.586 1.738)" fill="#ffffe1"/>
      <path id="Path_38" data-name="Path 38" d="M177.584,28.878q1.853-15.913,17.734-13.221a1.655,1.655,0,0,0,1.378-.412A27.6,27.6,0,0,1,212.83,8.056a2.227,2.227,0,0,1,1.457.317q4.18,2.628-1.061,2.771a11.583,11.583,0,0,0-2.359.253q-17.829,4.1-19.729,22.579a4.54,4.54,0,0,1-.443,1.758q-.839,1.552-1.979-.111a2.475,2.475,0,0,1-.4-1.568,31.157,31.157,0,0,1,3.072-12,1.013,1.013,0,0,0-.855-1.441q-8.851-.412-11.258,8.281a2.254,2.254,0,0,1-.792,1.251,2.885,2.885,0,0,1-3.183.38,3.735,3.735,0,0,1-1.71-2.217q-3.642-9.928,5.8-16.816,2.85-2.074,4.687.934,1.758,2.9-1.219,4.212-2.407,1.061-2.5,1.124a10.966,10.966,0,0,0-5.431,9.516q-.048,2.09,1.789,2.343a.724.724,0,0,0,.573-.174.886.886,0,0,0,.3-.57Z" transform="translate(96.043 2.71)" fill="#ffffe1"/>
      <path id="Path_39" data-name="Path 39" d="M207.982,16.594q3.341,2.993-1.425,3.642a8.687,8.687,0,0,1-3.151-.348q-7.236-1.837-12.794,4.924-1.742,2.106-.839-.475,4.133-11.875,15.2-9.263A6.675,6.675,0,0,1,207.982,16.594Z" transform="translate(105.894 6.539)" fill="#ffffe1"/>
      <path id="Path_40" data-name="Path 40" d="M205.3,24.5q-5.764-3.927-12.9-.7-.76.348-.665-.38a1.32,1.32,0,0,1,.523-.808,15.03,15.03,0,0,1,12.54-3.151q4.259.744,6.9,5.209a4.465,4.465,0,0,0,3.594,2.169,24.339,24.339,0,0,1,16.436,7.632,2.3,2.3,0,0,1,.713,1.267q.111,1.045-1.14.95a2.091,2.091,0,0,1-1.156-.507q-16.151-12.556-32.475-.3a6.459,6.459,0,0,1-1.425.855q-2.3.9-1.346-1.393a3.517,3.517,0,0,1,.887-1.283,26.275,26.275,0,0,1,9.057-5.684Q208.8,26.878,205.3,24.5Z" transform="translate(107.211 9.222)" fill="#ffffe1"/>
      <path id="Path_41" data-name="Path 41" d="M168,40.079q1.916.491-.443,1.077a1.83,1.83,0,0,1-.982-.047q-12.635-4.085-7.885-17.069,1.473-4.006,3.436-1.583a3.65,3.65,0,0,1,.712,3.072q-2.328,10.181,4.323,14.219A2.959,2.959,0,0,0,168,40.079Z" transform="translate(87.182 10.588)" fill="#ffffe1"/>
      <path id="Path_42" data-name="Path 42" d="M172.088,62.332a7.643,7.643,0,0,0-3.024-1,12.171,12.171,0,0,1-3.008-.649q-10.324-4.608-7.759-15.644a2.8,2.8,0,0,0-.57-2.423q-6.983-8.439-6.682-17.75a.861.861,0,0,1,.258-.6.729.729,0,0,1,.581-.206A1.924,1.924,0,0,1,153.8,26.1q.111,1.9.143,2.027,3.151,15.818,18.7,19.571a21.647,21.647,0,0,0,2.834.317,5.551,5.551,0,0,1,2.771.855q2.723,1.916-.6,2.011A28.7,28.7,0,0,1,164.662,48.4a1.293,1.293,0,0,0-1.274.118,1.256,1.256,0,0,0-.531,1.149q.633,7.458,7.125,10.165a10.584,10.584,0,0,1,2.929,1.552,2.016,2.016,0,0,1,.016,3.135,5.688,5.688,0,0,1-2.375,1.425q-9.073,3.167-15.565-4.576a4.292,4.292,0,0,1-.649-4.956q1.14-2.391,3.388-1.124a2.458,2.458,0,0,1,.982,1.172,13.6,13.6,0,0,0,8.9,7.885,4.555,4.555,0,0,0,4.592-1.029.592.592,0,0,0,.2-.513.628.628,0,0,0-.307-.469Z" transform="translate(83.473 12.055)" fill="#ffffe1"/>
      <path id="Path_43" data-name="Path 43" d="M209.931,47.7A19.571,19.571,0,1,1,190.361,28.13,19.571,19.571,0,0,1,209.931,47.7ZM182.27,37.029q-5.954-.808-8.693,3.943-.412.713.253.238a17.149,17.149,0,0,1,7.189-3.056q2.787,1.694,1.758,3.753a5.223,5.223,0,0,1-2.676,1.932,12.808,12.808,0,0,0-5.748,4.734,4.227,4.227,0,0,0-.633,1.568q-1.758,8.883,2.6-1.615a1.955,1.955,0,0,1,1.916-1.2q2.533.143,2.771,2.011a6.745,6.745,0,0,1-.76,2.755,8.259,8.259,0,0,0-.348,5.526,8.667,8.667,0,0,0,3.911,7.394q.681.459.206-.222a17.231,17.231,0,0,1-3.056-7.569q1.156-3.167,3.183-2.011a5.252,5.252,0,0,1,1.726,2.264,14.7,14.7,0,0,0,7.569,7.094q1.583.681,2.217-.19a.488.488,0,0,0,.022-.52.71.71,0,0,0-.482-.351,12.393,12.393,0,0,1-3.008-1.045,3.828,3.828,0,0,1-2.058-2.217q-.792-2.28,1.71-2.85a5.089,5.089,0,0,1,2.787.412,11.981,11.981,0,0,0,7.9.174q1.124-.348-.032-.554-6.365-1.045-4.18-3.879a11.468,11.468,0,0,1,3.2-2.185,10.891,10.891,0,0,0,5.542-7.236q.522-2.09-.222-2.328a.5.5,0,0,0-.529.172,1.2,1.2,0,0,0-.294.7,8.558,8.558,0,0,1-2.343,5.194,1.545,1.545,0,0,1-1.362.475,2.783,2.783,0,0,1-2.6-2.9A2.675,2.675,0,0,1,200.162,44a6.619,6.619,0,0,0,.713-5.384,7.026,7.026,0,0,0-2.312-6.429,1.182,1.182,0,0,0-.523-.269q-1.093-.238-.523.475a9.444,9.444,0,0,1,2.106,6.951q-3.578,2.723-5.146-1.916-2.027-5.985-8.629-5.969a3.418,3.418,0,0,0-1.71.333q-.792.491,3.325.507a2.486,2.486,0,0,1,1.963.966q2.755,3.515.364,4.56a5.49,5.49,0,0,1-3.309-.016Q184.391,37.329,182.27,37.029Z" transform="translate(94.999 14.617)" fill="#ffffe1"/>
      <path id="Path_44" data-name="Path 44" d="M210.041,33.715a8.722,8.722,0,0,0-7.474-.38.782.782,0,0,1-.613-.03.572.572,0,0,1-.321-.445q-.143-1.473,1.758-2.043,11.844-3.578,16.7,6.824a2.477,2.477,0,0,1,.206,1.5q-.823,4.133-3.642,2.2a7.661,7.661,0,0,1-2.011-2.613A12.182,12.182,0,0,0,210.041,33.715Z" transform="translate(112.987 15.638)" fill="#ffffe1"/>
      <path id="Path_45" data-name="Path 45" d="M198.73,38.115q1.3.412,1.251-.728a6.619,6.619,0,0,1-.713,5.384,2.674,2.674,0,0,0-.459,1.441,2.783,2.783,0,0,0,2.6,2.9,1.545,1.545,0,0,0,1.362-.475,8.558,8.558,0,0,0,2.343-5.194,1.2,1.2,0,0,1,.294-.7.5.5,0,0,1,.529-.172q.744.238.222,2.328a10.891,10.891,0,0,1-5.542,7.236,11.467,11.467,0,0,0-3.2,2.185q-2.185,2.834,4.18,3.879,1.156.206.032.554a11.981,11.981,0,0,1-7.9-.174,5.089,5.089,0,0,0-2.787-.412q-2.5.57-1.71,2.85a3.828,3.828,0,0,0,2.058,2.217,12.392,12.392,0,0,0,3.008,1.045.71.71,0,0,1,.482.351.488.488,0,0,1-.022.52q-.633.871-2.217.19a14.7,14.7,0,0,1-7.569-7.094,5.252,5.252,0,0,0-1.726-2.264q-2.027-1.156-3.183,2.011a1.48,1.48,0,0,0-1.061.4,8.259,8.259,0,0,1,.348-5.526,6.744,6.744,0,0,0,.76-2.755q-.238-1.868-2.771-2.011a1.956,1.956,0,0,0-1.916,1.2q-4.354,10.5-2.6,1.615a4.227,4.227,0,0,1,.633-1.568,12.808,12.808,0,0,1,5.748-4.734,5.223,5.223,0,0,0,2.676-1.932q1.029-2.058-1.758-3.753a1.567,1.567,0,0,1,1.251-1.124q2.122.3,4.212.776a5.49,5.49,0,0,0,3.309.016q2.391-1.045-.364-4.56a2.486,2.486,0,0,0-1.963-.966q-4.117-.016-3.325-.507a3.418,3.418,0,0,1,1.71-.333q6.6-.016,8.629,5.969Q195.152,40.839,198.73,38.115Z" transform="translate(95.892 15.851)" fill="#fdd802"/>
      <path id="Path_46" data-name="Path 46" d="M191.1,37.24q.048,1.14-1.251.728a9.444,9.444,0,0,0-2.106-6.951q-.57-.713.523-.475a1.182,1.182,0,0,1,.523.269A7.026,7.026,0,0,1,191.1,37.24Z" transform="translate(104.775 15.977)" fill="#e7da6a"/>
      <path id="Path_47" data-name="Path 47" d="M211.319,46.458q3.183,1.457,2.486-1.979-1.583-7.648-8.028-9.975a4.314,4.314,0,0,1-.7-.333q-1.979-1.283.618-.887,15.2,2.328,12.525,16.942a1.568,1.568,0,0,0,.38,1.346,28.285,28.285,0,0,1,7.252,17.734,1.34,1.34,0,0,1-.6,1.251q-1.948,1.188-2.391-1.916-2.913-20.283-23.212-22.136a2.289,2.289,0,0,1-1.393-.554q-1.251-1.172.3-2.027a3.043,3.043,0,0,1,1.694-.285A33.064,33.064,0,0,1,211.319,46.458Z" transform="translate(110.697 17.605)" fill="#ffffe1"/>
      <path id="Path_48" data-name="Path 48" d="M181.3,33.793a1.567,1.567,0,0,0-1.251,1.124,17.149,17.149,0,0,0-7.189,3.056q-.665.475-.253-.238Q175.347,32.986,181.3,33.793Z" transform="translate(95.968 17.858)" fill="#e7da6a"/>
      <path id="Path_49" data-name="Path 49" d="M177.6,46.5a17.231,17.231,0,0,0,3.056,7.569q.475.681-.206.222A8.667,8.667,0,0,1,176.54,46.9,1.48,1.48,0,0,1,177.6,46.5Z" transform="translate(98.354 25.424)" fill="#e7da6a"/>
      <path id="Path_50" data-name="Path 50" d="M208.324,49.1q8.2,6.429,3.4,15.9a1.489,1.489,0,0,1-1.14.808q-4.513.459-2.818-4.481,2.961-8.677-5.668-13.728-.823-.491.127-.538A8.826,8.826,0,0,1,208.324,49.1Z" transform="translate(113.042 25.758)" fill="#ffffe1"/>
      <path id="Path_51" data-name="Path 51" d="M206.951,49.337q6.7,6.824,3.262,14.868a10.841,10.841,0,0,1-2.882,3.768q-1.52,1.346-3.04,2.708a1.949,1.949,0,0,0-.649,1.33,26.62,26.62,0,0,1-7.6,16.879q-1.805,1.853-2.169.111a1.74,1.74,0,0,1,.412-1.393q13.063-16.847-.633-33.647-1.33-1.631.048-1.963a1.644,1.644,0,0,1,1.409.412,23.331,23.331,0,0,1,7.141,10.941,1.229,1.229,0,0,0,.808.781,1.193,1.193,0,0,0,1.092-.211q6.777-5.431,2.09-13.791a1.154,1.154,0,0,1-.174-.633Q206.1,48.466,206.951,49.337Z" transform="translate(107.955 26.915)" fill="#ffffe1"/>
      <path id="Path_52" data-name="Path 52" d="M163.724,57.612q11.464,1.678,20.79-6.793a1.554,1.554,0,0,1,1.362-.428q1.536.427-.016,2.264a21.729,21.729,0,0,1-10.466,6.935,1.235,1.235,0,0,0-.538,2.011q5.858,6.4,13.174,2.359a1.621,1.621,0,0,1,1.172-.238q.76.238-.238,1.108-10.894,9.611-20.473-2.692a4.362,4.362,0,0,0-3.1-1.647,24.135,24.135,0,0,1-15.517-6.84,2.593,2.593,0,0,1-.807-1.425q-.253-1.615,1.488-1.045a4.779,4.779,0,0,1,1.33.776Q158.15,56.789,163.724,57.612Z" transform="translate(82.304 27.717)" fill="#ffffe1"/>
      <path id="Path_53" data-name="Path 53" d="M192.412,71.069q8.059.332,10.435-8.044a2.118,2.118,0,0,1,.475-.887q2.138-2.264.95.95A4.237,4.237,0,0,0,204,64.166q-1.568,12.889-16.166,11.606a3.713,3.713,0,0,0-2.518.728,29.3,29.3,0,0,1-16.784,6.4,2.017,2.017,0,0,1-1.409-.443q-1.2-1.045.19-1.868a3.9,3.9,0,0,1,1.52-.428q20.3-2.343,22.167-22.484.206-2.3,1.678-2.5a.713.713,0,0,1,.582.195.943.943,0,0,1,.289.613,25.178,25.178,0,0,1-2.47,12.9,1.51,1.51,0,0,0,.07,1.446A1.546,1.546,0,0,0,192.412,71.069Z" transform="translate(92.536 30.57)" fill="#ffffe1"/>
      <path id="Path_54" data-name="Path 54" d="M171.011,66.061q7.7,1.2,11.195-4.433a2.2,2.2,0,0,0,.317-.871q.681-3.974,1.251-.158a1.878,1.878,0,0,1-.079.871q-4.243,12.635-17.94,8.123a1.916,1.916,0,0,1-.982-2.9q2.106-3.088,4.038-1.583A4.639,4.639,0,0,0,171.011,66.061Z" transform="translate(91.295 32.645)" fill="#ffffe1"/>
      <path id="Path_55" data-name="Path 55" d="M192.942,69.749a9.862,9.862,0,0,0,2.011-10.229q-.317-.934.443-.76a1.093,1.093,0,0,1,.649.523q4.481,7.157-.333,14.425a8.143,8.143,0,0,1-6.745,4.006,2.593,2.593,0,0,1-2.343-.982,2.49,2.49,0,0,1-.333-2.3,1.989,1.989,0,0,1,1.029-1.093Q191.881,70.984,192.942,69.749Z" transform="translate(103.961 32.659)" fill="#ffffe1"/>
      <circle id="Ellipse_1" data-name="Ellipse 1" cx="8.756" cy="8.756" r="8.756" transform="translate(101.117 104.646)" fill="#859998"/>
      <circle id="Ellipse_2" data-name="Ellipse 2" cx="8.772" cy="8.772" r="8.772" transform="translate(127.892 104.646)" fill="#859998"/>
      <path id="Path_56" data-name="Path 56" d="M210.7,174.709l-9.184.776a.953.953,0,0,1-.713-.235.886.886,0,0,1-.3-.668V158.194a.966.966,0,0,1,.9-.966q11.195-.681,15.422-8.265,2.264-4.069,2.217-14.868-.095-15.739.285-31.478a37.35,37.35,0,0,1,2.328-13.237Q230.2,68.7,254.636,67.83a.752.752,0,0,1,.558.216.784.784,0,0,1,.234.56l.19,16.214a.808.808,0,0,1-.792.808q-11.21.38-15.549,8.5-2.359,4.4-2.359,15.628v28.8q0,14.789-7.711,24.416a2.328,2.328,0,0,0-.491,1.425q.032,15.976-13.111,25.287a1.3,1.3,0,0,1-1.046.2,1.364,1.364,0,0,1-.87-.647l-5.51-9.389a2.013,2.013,0,0,1-.2-1.6,1.946,1.946,0,0,1,1.035-1.206,5.052,5.052,0,0,0,2.074-1.694Q211.6,174.645,210.7,174.709Z" transform="translate(112.331 38.468)" fill="#859998"/>
      <path id="Path_57" data-name="Path 57" d="M129.142,121.58l-.079,30.306a.833.833,0,0,1-.823.808l-15.47.443a1.517,1.517,0,0,1-1.073-.391,1.355,1.355,0,0,1-.447-1l.1-80.515q0-.808.507-.19l42.2,51q1.932,2.328,1.932-.7V91.353a.823.823,0,0,1,.823-.823h15.8a1.172,1.172,0,0,1,1.172,1.172l-.364,79.977q0,.823-.523.206L130.6,121.074Q129.158,119.348,129.142,121.58Z" transform="translate(60.264 40.184)" fill="#859998"/>
      <path id="Path_58" data-name="Path 58" d="M38.019,151.539a29.882,29.882,0,0,1-10.688-3.088Q6.7,137.289,8.03,114.71a30.516,30.516,0,0,1,7.315-18.383A35.431,35.431,0,0,1,30.91,85.575q12.6-4.449,26.047,1.742a.655.655,0,0,0,.638-.045.691.691,0,0,0,.312-.572l.063-8.313a.831.831,0,0,1,.823-.808L74.912,77.5a.816.816,0,0,1,.808.823q0,29.261-.206,57.762a32.179,32.179,0,0,1-11.97,25.429A32.488,32.488,0,0,1,40,169.495a.879.879,0,0,1-.839-.855l-.364-16.214A.9.9,0,0,0,38.019,151.539ZM57.59,117.7a15.771,15.771,0,1,0-15.771,15.771A15.771,15.771,0,0,0,57.59,117.7Z" transform="translate(0 44.11)" fill="#859998"/>
      <path id="Path_59" data-name="Path 59" d="M177.824,128.269q3.531,11.448,17.085,12.287a.855.855,0,0,1,.807.855v15.945a.959.959,0,0,1-.279.677.926.926,0,0,1-.671.273q-19.254-.238-29.673-14.868a31.253,31.253,0,0,1-5.922-19.191q.127-6.334.127-12.667,0-8.756,7.711-17.655Q177.587,81.7,192.059,81.511a34.186,34.186,0,0,1,22.326,7.474q10.07,7.949,12.208,22.2a54.84,54.84,0,0,1,.016,14.947.919.919,0,0,1-.918.776l-47.3.586a.6.6,0,0,0-.57.776Zm24.337-25.508q-12.746-8.123-22.753,4.56-1.188,1.488.713,1.488h25.746a.839.839,0,0,0,.728-1.251A13.274,13.274,0,0,0,202.161,102.76Z" transform="translate(88.218 46.448)" fill="#859998"/>
      <path id="Path_60" data-name="Path 60" d="M96.752,129.815a14.97,14.97,0,0,0,10.5-7.569q2.169-3.863,2.407-11.844.38-13.079-.127-26.015a1.061,1.061,0,0,1,1.061-1.108l16.151.079a.752.752,0,0,1,.549.238.785.785,0,0,1,.211.569q-.792,21.281-.269,26.427,1.378,13.791-6.239,23.846-10.213,13.506-26.173,13.839a34.326,34.326,0,0,1-18.351-4.623,32.989,32.989,0,0,1-13.427-14.567q-2.708-5.653-3.183-15.3-.7-14.361-.269-29.7a.831.831,0,0,1,.839-.808l15.85-.079a.784.784,0,0,1,.792.776q.222,13.253.523,26.506.206,8.614,2.565,12.4a15.133,15.133,0,0,0,7.426,6.175A15.561,15.561,0,0,0,96.752,129.815Z" transform="translate(30.032 47.435)" fill="#859998"/>
    </g>
  </g>
</svg>
