<!DOCTYPE svg PUBLIC "-//W3C//DTD SVG 1.1//EN" "http://www.w3.org/Graphics/SVG/1.1/DTD/svg11.dtd">
<!-- Uploaded to: SVG Repo, www.svgrepo.com, Transformed by: SVG Repo Mixer Tools -->
<svg fill="#000000" width="800px" height="800px" viewBox="0 0 24 24" id="clipboard-delete" data-name="Line Color" xmlns="http://www.w3.org/2000/svg" class="icon line-color">
<g id="SVGRepo_bgCarrier" stroke-width="0"/>
<g id="SVGRepo_tracerCarrier" stroke-linecap="round" stroke-linejoin="round"/>
<g id="SVGRepo_iconCarrier">
<path id="primary" d="M14,5h3a1,1,0,0,1,1,1v9" style="fill: none; stroke: #000000; stroke-linecap: round; stroke-linejoin: round; stroke-width: 2;"/>
<path id="primary-2" data-name="primary" d="M8,5H5A1,1,0,0,0,4,6V20a1,1,0,0,0,1,1h7" style="fill: none; stroke: #000000; stroke-linecap: round; stroke-linejoin: round; stroke-width: 2;"/>
<path id="secondary" d="M14,4a1,1,0,0,0-1-1H9A1,1,0,0,0,8,4V7h6ZM8,17h4M8,13h6m2,6h4" style="fill: none; stroke: #ff5722; stroke-linecap: round; stroke-linejoin: round; stroke-width: 2;"/>
</g>
</svg>